# xmcd
#
# Track frame offsets:
#	150
#	15162
#	27462
#	42944
#	60047
#	81531
#	99363
#	116096
#	128686
#	154238
#	168865
#	181590
#	198948
#	207304
#	218695
#
# Disc length: 3334 seconds
#
# Revision: 0
# Processed by: cddbd v1.5PL3 Copyright (c) Steve Scherf et al.
# Submitted via: audiograbber 1.83.01
#
DISCID=b70d040f
DTITLE=Country-Bound - Cool Water
DYEAR=1900
DGENRE=Country
TTITLE0=Seven Bridges Road
TTITLE1=Runaway
TTITLE2=Cool Water
TTITLE3=Same Ol' Love
TTITLE4=Medley
TTITLE5=Tumbling Tumbleweeds
TTITLE6=The End Of The Line
TTITLE7=Little Did I Know
TTITLE8=The Rose
TTITLE9=Stand By Your Man
TTITLE10=Tonight The Bottle Let Me Down
TTITLE11=Life #9
TTITLE12=Rawhide
TTITLE13=You Can Depend On Me
TTITLE14=When You Say Nothing At All
EXTD=
EXTT0=
EXTT1=
EXTT2=
EXTT3=
EXTT4=
EXTT5=
EXTT6=
EXTT7=
EXTT8=
EXTT9=
EXTT10=
EXTT11=
EXTT12=
EXTT13=
EXTT14=
PLAYORDER=
